<svg width="62" height="24" viewBox="0 0 62 24" fill="none" xmlns="http://www.w3.org/2000/svg">
<g clip-path="url(#clip0_22_1877)">
<path d="M41.5427 3.82872C41.769 4.47138 45.6851 14.0098 47.1104 17.5089C47.2489 17.8506 47.465 18.0823 47.8484 18.1026C48.23 18.1228 48.4732 17.9267 48.6522 17.602C50.6061 14.0741 52.565 10.5479 54.5205 7.02173C55.4325 5.37787 56.3562 3.73908 57.2478 2.0817C57.4927 1.62507 57.9318 1.64874 58.2746 1.82801C58.6731 2.03434 58.7525 2.34383 58.5296 2.7734C58.4266 2.97296 58.3185 3.17084 58.2121 3.36871C55.2416 8.93111 52.2712 14.4935 49.299 20.0559C49.0052 20.6072 48.8937 21.1839 49.0744 21.7928C49.3666 22.7788 50.01 23.4333 51.0046 23.6819C51.9064 23.9068 52.7052 23.665 53.3638 22.9902C53.6221 22.7263 53.8214 22.4202 54.0021 22.104C56.6517 17.4836 59.0075 12.7076 61.4089 7.95697C61.6166 7.54431 61.4443 7.06063 61.0559 6.87628C60.6354 6.67672 60.1811 6.84415 59.9515 7.2974C59.3976 8.39161 58.8555 9.4909 58.2982 10.5817C56.601 13.9067 54.9191 17.24 53.0919 20.4956C52.8403 20.9438 52.6021 21.4038 52.2796 21.8063C51.9537 22.2105 51.4927 22.2748 51.0806 22.0008C50.6263 21.6998 50.4929 21.2245 50.7344 20.7594C50.8256 20.5853 50.9202 20.4128 51.0131 20.2402C53.9852 14.6778 56.9574 9.11714 59.9312 3.55643C60.1102 3.22157 60.2419 2.87318 60.2622 2.49266C60.3179 1.44749 59.6053 0.522397 58.5076 0.20614C57.4218 -0.106734 56.4237 0.290701 55.8952 1.24455C53.3266 5.87678 50.7581 10.5073 48.1878 15.1379C48.1372 15.2292 48.1135 15.351 47.9835 15.3966C47.943 15.3002 47.9024 15.2055 47.8636 15.1108C46.3387 11.38 44.8137 7.64748 43.2939 3.91497C43.1672 3.60548 43.0034 3.30613 42.9933 2.95605C42.9781 2.46729 43.2415 2.13412 43.7414 2.01912C44.145 1.9261 44.4253 2.08846 44.6212 2.55354C45.4234 4.4477 46.2221 6.34524 47.0192 8.24278C47.3451 9.01905 47.6576 9.80039 47.9869 10.575C48.1777 11.0248 48.6201 11.2142 49.0457 11.0468C49.4527 10.8861 49.6367 10.4126 49.4662 9.96275C49.4425 9.90186 49.4155 9.84267 49.3902 9.78179C48.3685 7.33968 47.3502 4.89587 46.3218 2.45714C46.1377 2.02081 45.9908 1.55911 45.675 1.18704C44.6077 -0.0729097 42.6556 0.297466 41.7268 1.48808C41.7268 1.48808 41.4127 1.91427 41.3316 2.52141C41.2505 3.12856 41.5427 3.8321 41.5427 3.8321V3.82872Z" fill="#3F6DB5"/>
<path d="M41.0074 3.26917C38.7327 2.15973 36.3499 1.79951 33.8556 2.22907C31.0388 2.71276 28.7 4.04374 26.942 6.30828C25.1519 8.61509 24.5035 11.2365 25.0709 14.1115C25.5268 16.42 26.7292 18.3125 28.5378 19.7991C31.0371 21.8539 33.9198 22.642 37.125 22.3207C38.4709 22.1854 39.7442 21.8099 40.955 21.2163C41.3654 21.0151 41.4735 20.6447 41.2725 20.1948C41.1205 19.8532 40.874 19.7872 40.4197 19.9648C40.342 19.9953 40.266 20.0342 40.19 20.0714C39.6226 20.3487 39.0198 20.5162 38.4051 20.6379C36.7889 20.9593 35.1695 20.9728 33.5533 20.6413C32.0538 20.3352 30.6977 19.7281 29.5122 18.7387C27.0957 16.7228 26.0503 12.7078 26.7377 9.84968C27.5955 6.2846 30.6639 3.70043 34.3538 3.35035C36.2232 3.17277 38.0082 3.50932 39.7206 4.23823C40.6544 4.63567 41.617 5.01619 42.2283 5.90915C42.3313 6.06813 42.3499 6.12732 42.404 6.24063C42.6792 6.81902 42.7721 7.44816 42.5762 8.04008C42.1692 9.06665 41.1188 9.61291 39.9688 9.39812C39.5348 9.31695 39.1211 9.17996 38.7259 8.97701C37.532 8.36987 36.2756 8.06883 34.9297 8.22104C34.168 8.30729 33.4385 8.51869 32.785 8.91951C31.9491 9.43195 31.4745 10.2285 31.2905 11.1705C30.9493 12.9108 31.6822 14.394 33.3439 15.4155C34.5953 16.185 35.9361 16.2458 37.3226 15.8941C38.0234 15.7165 38.6854 15.4408 39.322 15.0958C39.7932 14.8404 40.2643 14.9588 40.4873 15.3749C40.7152 15.7994 40.5632 16.2408 40.0837 16.5029C38.8711 17.1642 37.586 17.5887 36.2013 17.6952C33.067 17.9337 30.4765 15.6421 29.8044 13.4469C29.1036 11.157 30.2266 7.95721 33.0619 7.02535C35.2488 6.30828 37.3361 6.52306 39.3727 7.51919C39.756 7.70691 40.1428 7.85743 40.5801 7.81684C41.0125 7.77625 41.1898 7.50566 41.0412 7.09638C40.9213 6.7649 40.6933 6.5163 40.3927 6.34718C38.4101 5.22928 36.311 4.61707 34.0177 4.99082C31.2415 5.44238 28.7371 7.46338 28.2524 10.5279C27.8117 13.3184 28.5378 15.818 30.7822 17.7003C31.8123 18.5645 33.0619 18.9755 34.3741 19.17C35.8146 19.383 37.2483 19.3188 38.6601 18.9366C39.0046 18.8435 39.3288 18.7032 39.653 18.5527C40.4771 18.1721 41.308 18.0876 42.0628 18.6863C42.8363 19.3002 43.0457 20.1559 42.9427 21.1047C42.8819 21.656 42.5931 22.0569 42.1287 22.3494C41.0209 23.0462 39.805 23.4622 38.5334 23.7193C37.0727 24.0153 35.6001 24.0745 34.1208 23.8884C29.2505 23.2745 24.9527 19.8938 23.6642 15.1026C23.5527 14.6865 23.4413 14.2705 23.4126 13.8376C23.394 13.3809 23.3686 12.9243 23.3551 12.4677C23.3366 11.8504 23.367 11.2365 23.4142 10.6209C23.4227 10.5177 23.4227 10.4145 23.4413 10.3131C23.7047 8.88061 24.2096 7.53948 24.9814 6.3032C25.0236 6.23556 25.4728 5.54216 25.9997 4.91472C26.5266 4.28728 27.0872 3.77822 27.1446 3.7258C28.9938 2.07348 31.1452 1.04184 33.5821 0.632568C36.2249 0.189471 38.7833 0.510801 41.232 1.61685L41.5512 1.77583V3.3791L41.4296 3.5127L41.004 3.26579L41.0074 3.26917Z" fill="#3BB54A"/>
<path d="M26.7207 4.20927C26.7207 4.20927 26.7207 3.56323 26.7207 3.39072C26.7174 2.90365 26.7798 2.40813 26.6279 1.93797C26.2935 0.894494 25.5015 0.407424 24.4714 0.278892C23.0579 0.103006 21.7137 1.01457 21.7069 2.58571C21.69 7.18919 21.6579 11.791 21.6326 16.3945C21.6242 17.9318 21.6174 19.4691 21.614 21.0064C21.614 21.3193 21.5347 21.5831 21.2273 21.7252C20.6852 21.9755 20.1685 21.622 20.1651 20.9946C20.1499 18.8569 20.1381 16.7209 20.1263 14.5832C20.1145 12.4269 20.106 10.2706 20.0959 8.11428C20.0959 7.99251 20.0959 7.87244 20.0452 7.75574C19.7868 7.1486 19.0421 7.08433 18.6166 7.64243C16.9008 9.89005 15.1884 12.1394 13.4744 14.3887C13.3438 14.5601 13.2115 14.5589 13.0775 14.3853C12.0879 13.1034 11.1 11.8197 10.1088 10.5378C9.77439 10.1048 9.29141 10.0152 8.91314 10.3112C8.54837 10.5936 8.51629 11.0925 8.83883 11.5102C10.0851 13.127 11.3314 14.7438 12.5794 16.3589C13.0083 16.9137 13.5723 16.9086 13.9996 16.3471C15.4232 14.4766 16.8468 12.6078 18.2737 10.739C18.3312 10.6629 18.3632 10.5513 18.4899 10.5395C18.5541 10.6156 18.5237 10.7035 18.5254 10.783C18.5321 12.1512 18.5372 13.5211 18.5422 14.8893C18.5473 16.8392 18.5524 18.7892 18.5574 20.7392C18.5574 21.2516 18.6284 21.7505 18.8547 22.2139C19.3275 23.1779 20.4049 23.6227 21.5026 23.3149C22.271 23.1001 22.8417 22.6689 23.0883 21.8757C23.2116 20.68 23.1322 19.4809 23.1508 18.2835C23.1778 16.6346 23.1626 14.984 23.2116 13.3367C23.2335 12.5977 23.2268 11.8586 23.2622 11.1196C23.2774 8.31723 23.2926 5.51489 23.3095 2.71255C23.3129 2.11893 23.5797 1.85848 24.1725 1.86018C24.8024 1.86356 25.1317 2.16121 25.13 2.73453C25.13 3.74757 25.1198 5.15466 25.1215 6.1677L26.7258 4.20927H26.7207Z" fill="#E41E25"/>
<path d="M14.2951 11.4122C15.7559 9.36078 17.2149 7.30934 18.6757 5.2579C19.2245 4.48839 19.7784 3.72058 20.3205 2.94601C20.6937 2.41158 20.4387 1.75709 19.8122 1.65223C19.4356 1.58796 19.1789 1.78753 18.9678 2.08518C17.4412 4.23809 15.9078 6.38763 14.3779 8.53885C14.1127 8.91092 13.8476 9.28298 13.569 9.67365C13.5031 9.58909 13.4558 9.53328 13.4136 9.4724C12.1623 7.67464 10.9109 5.87688 9.66125 4.07743C9.16477 3.36205 8.66997 2.64497 8.16842 1.93466C7.94382 1.61841 7.60776 1.50848 7.25482 1.61164C6.95254 1.69958 6.72625 1.99216 6.69416 2.34901C6.68403 2.46063 6.68572 2.57394 6.68572 2.68556C6.67221 4.10111 6.66208 5.51665 6.64688 6.9322C6.59622 11.4308 6.54387 15.9311 6.48983 20.4298C6.48645 20.7122 6.45099 20.9896 6.33953 21.2534C6.19937 21.5882 5.99334 21.7354 5.68599 21.7269C5.38033 21.7168 5.16249 21.551 5.04259 21.2297C4.92945 20.927 4.89905 20.609 4.90074 20.2894C4.90749 18.9956 4.92438 17.7018 4.93113 16.4098C4.95478 11.9754 4.97504 7.54103 4.99362 3.10667C4.99531 2.61791 4.9514 2.13253 4.78422 1.66745C4.45154 0.752505 3.8436 0.125065 2.84894 0.0151365C1.91845 -0.0880275 1.20074 0.343232 0.673858 1.09244C0.253365 1.68775 0.106446 2.3693 0.10138 3.08638C0.0946249 4.56788 0.0929361 6.04769 0.0844925 7.52919C0.0574729 12.525 0.0287646 17.5226 5.62323e-05 22.5184C5.62323e-05 22.6402 -0.00332122 22.7603 0.0422744 22.8786C0.182439 23.2406 0.545514 23.4655 0.906902 23.4046C1.34935 23.3319 1.60603 23.0021 1.60772 22.4947C1.63305 17.4701 1.65838 12.4455 1.68203 7.42096C1.68878 5.9682 1.69723 4.51545 1.70229 3.06101C1.70229 2.6788 1.76815 2.3118 1.98937 1.99386C2.15656 1.75539 2.3744 1.57274 2.69188 1.60995C3.00092 1.64716 3.14615 1.88054 3.24916 2.14268C3.40622 2.5435 3.41128 2.9663 3.4079 3.38911C3.38764 6.09843 3.36906 8.80775 3.35386 11.5171C3.34036 13.9271 3.32009 16.3353 3.32347 18.7453C3.32347 19.6704 3.21877 20.604 3.4231 21.5206C3.58691 22.2512 3.93985 22.86 4.66769 23.1442C6.0896 23.6972 7.86276 23.0325 8.04177 21.0927C8.10594 20.3909 8.08061 19.6873 8.09074 18.9855C8.15153 14.431 8.2022 9.87491 8.25961 5.32047C8.25961 5.21562 8.22753 5.09723 8.33729 4.99407C8.41666 5.10569 8.49434 5.20885 8.56696 5.31371C9.97873 7.34147 11.3888 9.37262 12.8023 11.3987C13.2515 12.0447 13.8408 12.0464 14.2934 11.4122H14.2951Z" fill="#E41E25"/>
</g>
<defs>
<clipPath id="clip0_22_1877">
<rect width="61.5" height="24" fill="white"/>
</clipPath>
</defs>
</svg>
